<?xml version="1.0" standalone="no"?>
<!DOCTYPE svg PUBLIC "-//W3C//DTD SVG 20010904//EN"
 "http://www.w3.org/TR/2001/REC-SVG-20010904/DTD/svg10.dtd">
<svg version="1.0" xmlns="http://www.w3.org/2000/svg"
 width="1280.000000pt" height="1234.000000pt" viewBox="0 0 1280.000000 1234.000000"
 preserveAspectRatio="xMidYMid meet">
<metadata>
Created by potrace 1.15, written by Peter Selinger 2001-2017
</metadata>
<g transform="translate(0.000000,1234.000000) scale(0.100000,-0.100000)"
fill="#000000" stroke="none">
<path d="M3289 12325 c-102 -32 -195 -128 -225 -233 -20 -68 -14 -157 15 -226
25 -57 117 -156 218 -233 l73 -56 -72 -39 c-109 -59 -310 -194 -428 -288 -125
-99 -409 -381 -504 -500 -261 -327 -472 -748 -572 -1139 -53 -208 -93 -498
-94 -692 0 -23 -6 -28 -42 -37 -63 -16 -132 -64 -228 -158 -53 -51 -103 -90
-132 -103 -107 -46 -317 -70 -603 -71 -88 0 -191 -3 -229 -7 l-69 -6 -19 -45
c-31 -69 -22 -168 23 -253 41 -77 177 -219 264 -274 237 -151 463 -192 647
-117 94 38 148 50 148 31 0 -7 -112 -125 -248 -263 -202 -204 -252 -260 -267
-298 -22 -60 -10 -97 48 -139 185 -134 600 -103 962 72 55 26 129 67 164 92
l65 43 56 -75 c31 -42 93 -117 137 -167 l81 -90 -42 -105 c-190 -471 -519
-877 -929 -1145 -303 -198 -430 -299 -641 -510 -237 -237 -383 -439 -533 -738
-142 -284 -230 -567 -284 -916 -33 -210 -33 -609 0 -820 101 -657 374 -1199
839 -1666 395 -398 899 -684 1463 -832 153 -41 555 -119 774 -151 211 -32 288
-42 435 -60 363 -44 633 -68 1055 -93 278 -17 1310 -17 1590 0 1269 77 2256
251 3185 562 1303 436 2250 1092 2827 1960 263 395 459 898 542 1390 42 249
54 405 55 715 2 879 -135 1335 -792 2635 -371 734 -402 791 -469 858 -126 128
-352 184 -535 134 -207 -58 -355 -216 -579 -617 -140 -252 -195 -337 -290
-451 -141 -169 -242 -239 -564 -392 -603 -286 -722 -329 -1120 -402 -93 -17
-393 -80 -665 -140 -749 -165 -818 -177 -961 -167 -245 18 -415 140 -459 329
-40 176 60 406 239 550 104 84 339 323 435 443 376 470 601 1015 657 1593 15
151 6 492 -16 642 -22 145 -82 387 -130 516 -50 135 -170 381 -244 498 -264
421 -641 758 -1096 981 -434 213 -784 292 -1320 300 -416 6 -576 13 -690 30
-214 30 -391 104 -520 216 -38 33 -88 72 -110 86 -77 50 -186 65 -276 38z"/>
</g>
</svg>
